<svg width="640" height="360" viewBox="0 0 640 360" fill="none" xmlns="http://www.w3.org/2000/svg">
  <defs>
    <linearGradient id="bg" x1="40" y1="24" x2="600" y2="340" gradientUnits="userSpaceOnUse">
      <stop stop-color="#F8FAFC"/>
      <stop offset="1" stop-color="#E2E8F0"/>
    </linearGradient>
    <linearGradient id="alert" x1="0" y1="0" x2="1" y2="1">
      <stop stop-color="#DC2626"/>
      <stop offset="1" stop-color="#B91C1C"/>
    </linearGradient>
  </defs>

  <rect x="8" y="8" width="624" height="344" rx="24" fill="url(#bg)" stroke="#CBD5E1" stroke-width="2"/>

  <rect x="44" y="64" width="170" height="220" rx="16" fill="#FFFFFF" stroke="#CBD5E1" stroke-width="2"/>
  <rect x="66" y="95" width="126" height="14" rx="7" fill="#E2E8F0"/>
  <rect x="66" y="124" width="108" height="10" rx="5" fill="#E2E8F0"/>
  <rect x="66" y="145" width="126" height="10" rx="5" fill="#E2E8F0"/>
  <rect x="66" y="166" width="94" height="10" rx="5" fill="#E2E8F0"/>
  <circle cx="130" cy="238" r="20" fill="#FEE2E2" stroke="#EF4444" stroke-width="2"/>
  <path d="M130 228V240" stroke="#DC2626" stroke-width="4" stroke-linecap="round"/>
  <circle cx="130" cy="248" r="3.5" fill="#DC2626"/>

  <rect x="258" y="64" width="170" height="220" rx="16" fill="#FFFFFF" stroke="#CBD5E1" stroke-width="2"/>
  <rect x="280" y="95" width="126" height="14" rx="7" fill="#DBEAFE"/>
  <rect x="280" y="124" width="96" height="10" rx="5" fill="#DBEAFE"/>
  <rect x="280" y="145" width="126" height="10" rx="5" fill="#DBEAFE"/>
  <rect x="280" y="166" width="80" height="10" rx="5" fill="#DBEAFE"/>
  <circle cx="344" cy="238" r="20" fill="#FEF3C7" stroke="#F59E0B" stroke-width="2"/>
  <path d="M336 238L342 244L354 232" stroke="#D97706" stroke-width="4" stroke-linecap="round" stroke-linejoin="round"/>

  <rect x="472" y="64" width="124" height="220" rx="16" fill="#FFFFFF" stroke="#CBD5E1" stroke-width="2"/>
  <rect x="492" y="95" width="84" height="14" rx="7" fill="#E2E8F0"/>
  <rect x="492" y="124" width="68" height="10" rx="5" fill="#E2E8F0"/>
  <rect x="492" y="145" width="84" height="10" rx="5" fill="#E2E8F0"/>
  <circle cx="534" cy="238" r="20" fill="#FEE2E2" stroke="#DC2626" stroke-width="2"/>
  <path d="M524 238H544" stroke="#DC2626" stroke-width="4" stroke-linecap="round"/>

  <path d="M214 174H258" stroke="#94A3B8" stroke-width="3" stroke-dasharray="6 6"/>
  <path d="M428 174H472" stroke="#94A3B8" stroke-width="3" stroke-dasharray="6 6"/>

  <circle cx="232" cy="174" r="8" fill="#FFFFFF" stroke="#94A3B8" stroke-width="2"/>
  <circle cx="446" cy="174" r="8" fill="#FFFFFF" stroke="#94A3B8" stroke-width="2"/>

  <path d="M310 28H498C516 28 532 42 536 59L545 96" stroke="url(#alert)" stroke-width="5" stroke-linecap="round"/>
  <circle cx="305" cy="28" r="16" fill="url(#alert)"/>
  <path d="M305 20V31" stroke="white" stroke-width="4" stroke-linecap="round"/>
  <circle cx="305" cy="37" r="2.8" fill="white"/>
</svg>
